<?xml version="1.0" encoding="UTF-8"?>
<svg viewBox="0 0 24 24" version="1.1" xmlns="http://www.w3.org/2000/svg" xmlns:xlink="http://www.w3.org/1999/xlink">
    <g stroke="none" stroke-width="1" fill="#B0B8CF" fill-rule="evenodd">
        <path d="M12,2 C17.52,2 22,6.48 22,12 C22,17.52 17.52,22 12,22 C6.48,22 2,17.52 2,12 C2,6.48 6.48,2 12,2 Z M12,13.6970563 L14.5455844,16.2426407 C15.0142136,16.7112698 15.7740115,16.7112698 16.2426407,16.2426407 C16.7112698,15.7740115 16.7112698,15.0142136 16.2426407,14.5455844 L13.6970563,12 L16.2426407,9.45441559 C16.7112698,8.98578644 16.7112698,8.22598846 16.2426407,7.75735931 C15.7740115,7.28873016 15.0142136,7.28873016 14.5455844,7.75735931 L12,10.3029437 L9.45441559,7.75735931 C8.98578644,7.28873016 8.22598846,7.28873016 7.75735931,7.75735931 C7.28873016,8.22598846 7.28873016,8.98578644 7.75735931,9.45441559 L10.3029437,12 L7.75735931,14.5455844 C7.28873016,15.0142136 7.28873016,15.7740115 7.75735931,16.2426407 C8.22598846,16.7112698 8.98578644,16.7112698 9.45441559,16.2426407 L12,13.6970563 Z"></path>
    </g>
</svg>