<svg xmlns="http://www.w3.org/2000/svg" xmlns:xlink="http://www.w3.org/1999/xlink" width="882" height="273" viewBox="0 0 882 273"><defs><style>.a{fill:#fff;}.b{clip-path:url(#a);}.c{fill:#9ab3c3;}.d{fill:#cce5f5;}.e{fill:#6f1d9c;}.f{fill:#6a208b;}.g{fill:#b8d1e1;}.h{fill:#7927a6;}.i{fill:#1d1d1b;opacity:0.2;}.j{fill:#c2d7d7;}.k{fill:#eaffff;}.l{fill:#ee65ce;}.m{fill:#ff3c3c;}.n{fill:#59aee6;}.o{fill:#b30000;}.o,.p{fill-rule:evenodd;}.p{fill:#e40000;}.q{opacity:0.5;}</style><clipPath id="a"><rect class="a" width="882" height="273" rx="5" transform="translate(0)"/></clipPath></defs><g class="b"><g transform="translate(522.386 24.578)"><g transform="translate(0 39.407)"><path class="c" d="M77.909,136.257,77.89,115.84l9.716-.857,12.541,2.213,95.371-58.185c9.289-5.67,24.493-5.67,33.783,0L416,172.911l31.546,5.567-.026,19.048-.029,0c.3,3.962-1.985,7.982-6.914,10.991l-110.66,67.509c-9.289,5.67-24.493,5.67-33.783,0l-211.28-128.9c-4.881-2.975-7.169-6.947-6.923-10.868Z" transform="translate(-77.889 -33.461)"/><path class="d" d="M296.139,269.793c9.289,5.67,24.493,5.67,33.783,0l110.66-67.509c9.289-5.67,9.289-14.946,0-20.612L229.3,52.775c-9.289-5.67-24.493-5.67-33.783,0L84.859,120.284c-9.292,5.67-9.292,14.946,0,20.612Z" transform="translate(-77.89 -48.523)"/><path class="e" d="M279.432,259.513l144.473-88.1L225.248,50.211,80.819,138.343Z" transform="translate(-71.352 -44.445)"/><path class="f" d="M290.534,87.671l-144.473,88.1-5.491-3.35L285.959,84.88Z" transform="translate(62.02 39.293)"/><path class="f" d="M225.248,50.211,80.819,138.343l5.125,3.025,144.3-88.111Z" transform="translate(-71.352 -44.445)"/><path class="g" d="M172.011,121.974a9.506,9.506,0,0,0,9.008,0l21.963-13.4c2.476-1.513,2.476-3.986,0-5.5L195.1,98.271a9.531,9.531,0,0,0-9.011,0l-21.959,13.4c-2.479,1.51-2.479,3.986,0,5.5Z" transform="translate(110.458 68.903)"/><path class="g" d="M96.843,81.888a6.711,6.711,0,0,0,6.325-.263l32.916-20.083c1.859-1.134,2.056-2.869.436-3.859a6.722,6.722,0,0,0-6.325.266L97.276,78.032C95.421,79.166,95.223,80.9,96.843,81.888Z" transform="translate(-38.033 -28.013)"/></g><path class="h" d="M82.4,139.214l333.387,27.249L226.7,51.1Z" transform="translate(-67.812 -2.884)"/><path class="i" d="M137.672,83.108l-.029.574,3.171-1.93a2.42,2.42,0,0,0,1.341-1.988l.359-7.172a1.974,1.974,0,0,0-.459-1.2l-6.2,3.781,1.817,7.937Z" transform="translate(51.498 46.117)"/><g transform="translate(7.38)"><g transform="translate(0 75.63)"><path class="j" d="M270.231,85.441l-9.722.294L221.687,62.049a6.878,6.878,0,0,0-6.513,0L99.8,132.437,80.532,138.41l-.359,7.162h0a2.4,2.4,0,0,0,1.341,1.991l46.844,28.58a6.872,6.872,0,0,0,6.51,0l103.727-63.28,23.01,1.96.359-7.172-2.576-2.514-1-4.351L268.531,94.6a2.416,2.416,0,0,0,1.341-1.988Z" transform="translate(-80.173 -54.057)"/><path class="k" d="M268.643,88.529,221.8,59.949a6.878,6.878,0,0,0-6.513,0L81.626,141.495c-1.791,1.09-1.791,2.879,0,3.969l46.844,28.58a6.872,6.872,0,0,0,6.51,0l103.727-63.28,23.01,1.96L258.5,98.686,268.643,92.5C270.433,91.408,270.433,89.618,268.643,88.529Z" transform="translate(-79.926 -59.129)"/><g transform="translate(27.876 70.051)"><ellipse class="l" cx="23.608" cy="14.403" rx="23.608" ry="14.403"/><g transform="translate(10.993 6.707)"><path class="k" d="M94.349,89.247a10.928,10.928,0,0,0,10.382,0c2.867-1.749,2.867-4.583,0-6.332a10.928,10.928,0,0,0-10.382,0C91.482,84.663,91.482,87.5,94.349,89.247Z" transform="translate(-92.199 -81.603)"/><path class="k" d="M94.568,92.262a1.437,1.437,0,0,1,.33-2.449l1.464-.895a10.384,10.384,0,0,0,5.918-1.226,3.548,3.548,0,0,0,2.01-3.61l1.464-.895a4.909,4.909,0,0,1,4.014-.2l6.7,2.927c1.18.519,1.306,1.452.278,2.08l-13.969,8.521a3.112,3.112,0,0,1-3.407-.171Z" transform="translate(-88.138 -79.065)"/></g></g><g transform="translate(65.724 11.187)"><path class="j" d="M105.151,110.409a4.071,4.071,0,0,0,3.859-.051l68.37-41.709c1.083-.663,1.122-1.721.084-2.357a4.087,4.087,0,0,0-3.862.055l-68.367,41.709C104.149,108.718,104.114,109.777,105.151,110.409Z" transform="translate(-91.827 -54.121)"/><path class="j" d="M108.268,112.209a4.071,4.071,0,0,0,3.859-.051L180.5,70.449c1.083-.663,1.122-1.721.084-2.357a4.09,4.09,0,0,0-3.859.051l-68.37,41.712C107.269,110.515,107.23,111.577,108.268,112.209Z" transform="translate(-84.868 -49.774)"/><path class="m" d="M102.419,77.171a6.366,6.366,0,0,1,2.922-.225,1.6,1.6,0,0,1,.372-1.783,4.171,4.171,0,0,1,5.553.085c2.014,1.81,1.109,5.987,1.109,5.987s-5.181,2.6-10.272.147C99.2,79.985,100.842,77.677,102.419,77.171Z" transform="translate(-100.507 -34.033)"/><path class="m" d="M106.473,74.822A6.379,6.379,0,0,1,109.4,74.6a1.6,1.6,0,0,1,.372-1.786,4.175,4.175,0,0,1,5.553.089c2.014,1.807,1.105,5.987,1.105,5.987s-5.178,2.6-10.272.143C103.26,77.637,104.9,75.328,106.473,74.822Z" transform="translate(-91.454 -39.706)"/><path class="m" d="M110.53,72.474a6.355,6.355,0,0,1,2.925-.229,1.6,1.6,0,0,1,.372-1.783,4.174,4.174,0,0,1,5.55.085c2.017,1.81,1.109,5.987,1.109,5.987s-5.181,2.6-10.272.147C107.314,75.288,108.953,72.976,110.53,72.474Z" transform="translate(-82.402 -45.381)"/><path class="m" d="M114.586,70.127a6.341,6.341,0,0,1,2.922-.229,1.6,1.6,0,0,1,.372-1.783,4.171,4.171,0,0,1,5.553.085c2.014,1.81,1.109,5.987,1.109,5.987s-5.181,2.6-10.272.147C111.37,72.937,113.009,70.629,114.586,70.127Z" transform="translate(-73.349 -51.056)"/><path class="m" d="M118.641,67.774a6.379,6.379,0,0,1,2.925-.225,1.6,1.6,0,0,1,.372-1.783,4.171,4.171,0,0,1,5.553.085c2.014,1.807,1.105,5.987,1.105,5.987s-5.178,2.6-10.272.147C115.425,70.588,117.064,68.28,118.641,67.774Z" transform="translate(-64.297 -56.73)"/><path class="m" d="M122.7,65.426a6.34,6.34,0,0,1,2.922-.229,1.6,1.6,0,0,1,.372-1.783,4.179,4.179,0,0,1,5.553.085c2.014,1.81,1.109,5.991,1.109,5.991s-5.181,2.6-10.272.143C119.481,68.24,121.12,65.928,122.7,65.426Z" transform="translate(-55.244 -62.404)"/></g></g><g transform="translate(151.511 93.811)"><path class="j" d="M317.107,90.8l-9.735-.936-1.3.389L268.563,67.372a6.878,6.878,0,0,0-6.513,0L146.019,138.159l-18.611,5.571-.359,7.128.006,0a2.385,2.385,0,0,0,1.335,2.025l46.844,28.577a6.872,6.872,0,0,0,6.51,0l11.19-6.824,23.013,1.96.359-7.172-2.489-2.121-1.086-4.747L315.406,99.92a2.36,2.36,0,0,0,1.328-2.063l.013,0Z" transform="translate(-127.049 -59.38)"/><path class="k" d="M128.5,146.814l133.66-81.543a6.878,6.878,0,0,1,6.513,0l46.844,28.577c1.791,1.093,1.791,2.879,0,3.972L212.843,160.459l3.216,14.041-23.01-1.96-11.193,6.824a6.872,6.872,0,0,1-6.51,0L128.5,150.786C126.712,149.693,126.712,147.907,128.5,146.814Z" transform="translate(-126.802 -64.452)"/><g transform="translate(115.201 16.98)"><path class="n" d="M169.6,94.009c9.218,5.625,24.167,5.625,33.385,0s9.221-14.741,0-20.366-24.167-5.625-33.388,0S160.386,88.387,169.6,94.009Z" transform="translate(-162.691 -69.424)"/><g transform="translate(10.992 6.705)"><path class="k" d="M168.242,79.034a10.928,10.928,0,0,0,10.382,0c2.867-1.749,2.867-4.587,0-6.336a10.928,10.928,0,0,0-10.382,0C165.375,74.447,165.375,77.285,168.242,79.034Z" transform="translate(-166.092 -71.387)"/><path class="k" d="M168.46,82.046a1.439,1.439,0,0,1,.33-2.449l1.467-.895a10.394,10.394,0,0,0,5.915-1.223,3.547,3.547,0,0,0,2.01-3.613l1.464-.891a4.9,4.9,0,0,1,4.014-.2l6.7,2.93c1.18.516,1.306,1.452.278,2.077L176.669,86.3a3.119,3.119,0,0,1-3.407-.171Z" transform="translate(-162.03 -68.849)"/></g></g><g transform="translate(26.013 43.273)"><path class="j" d="M135.824,120.047a3.93,3.93,0,0,0,3.717-.048l65.836-40.165c1.044-.639,1.08-1.66.081-2.268a3.93,3.93,0,0,0-3.717.048L135.9,117.779C134.86,118.417,134.825,119.439,135.824,120.047Z" transform="translate(-135.097 -77.122)"/><path class="j" d="M138.826,121.78a3.93,3.93,0,0,0,3.717-.048l65.836-40.165c1.044-.639,1.08-1.656.081-2.268a3.93,3.93,0,0,0-3.717.048l-65.836,40.165C137.862,120.15,137.827,121.172,138.826,121.78Z" transform="translate(-128.396 -72.936)"/><path class="m" d="M158.27,84.7a6.341,6.341,0,0,1,2.922-.229,1.6,1.6,0,0,1,.372-1.783,4.175,4.175,0,0,1,5.553.085c2.014,1.81,1.109,5.987,1.109,5.987s-5.181,2.6-10.272.147C155.054,87.518,156.693,85.206,158.27,84.7Z" transform="translate(-87.639 -66.11)"/><path class="j" d="M141.808,113.456a3.818,3.818,0,0,0,3.623-.017L188.16,87.372a1.192,1.192,0,0,0,.029-2.21,3.827,3.827,0,0,0-3.623.017l-42.729,26.066A1.192,1.192,0,0,0,141.808,113.456Z" transform="translate(-121.75 -58.782)"/></g></g><g transform="translate(207.334)"><path class="o" d="M153.528,115.433a3.8,3.8,0,0,1-1.461-3.412V76.573a11.907,11.907,0,0,1,5.016-9.184l42.231-25.766a3.4,3.4,0,0,1,3.294-.417l.039-.061-7.537-3.812,0,0a3.362,3.362,0,0,0-3.536.365L149.34,63.468a11.909,11.909,0,0,0-5.02,9.181V108.1c0,1.855.721,3.026,1.8,3.494l0,.092Z" transform="translate(-144.32 -36.985)"/><path class="o" d="M147.181,59.959l.339.174.1-.079C147.482,60,147.307,60.034,147.181,59.959Z" transform="translate(-137.934 18.506)"/><path class="o" d="M151.8,58.792l1.961,1.9,7.746,3.922-7.437-7.206Z" transform="translate(-127.625 12.344)"/><path class="p" d="M193.965,38.851,151.733,64.617a11.907,11.907,0,0,0-5.016,9.184v35.448c0,3.368,2.256,4.744,5.016,3.06l13.679-8.344,7.437,7.206,7.437-16.281,13.679-8.347a11.9,11.9,0,0,0,5.02-9.181V41.912C198.984,38.544,196.725,37.168,193.965,38.851Z" transform="translate(-138.97 -34.213)"/><path class="a" d="M159.129,50.957c3.038-.7,4.166,1.4,4.166,1.4a19.123,19.123,0,0,1,4.17-6.482c1.946-1.981,7.583-2.606,7.343,4.324C174.3,64.977,163.3,74.055,163.3,74.055s-10.307-2.862-11.51-9.812S156.091,51.654,159.129,50.957Z" transform="translate(-128.032 -18.736)"/></g><g class="q" transform="translate(63.726 72.632)"><path class="i" d="M141.058,66.537v.034l7.4,3.74a.825.825,0,0,0,.094.048l.294.15.026-.02a3.557,3.557,0,0,0,3.151-.523l4.1-1.756L139.8,58.251l-.543,4.734C139.261,64.85,139.969,66.076,141.058,66.537Z" transform="translate(-12.005 -58.251)"/><g transform="translate(0 61.804)"><path class="i" d="M195.3,114.138l-11.19,6.824a6.872,6.872,0,0,1-6.51,0L130.756,92.386a3.148,3.148,0,0,1-.879-.786l-2.188,1.335a2.416,2.416,0,0,0-1.341,1.988h0l-.359,7.128H126a2.386,2.386,0,0,0,1.335,2.029l46.844,28.577a6.878,6.878,0,0,0,6.513,0l11.19-6.827,23.01,1.964.359-7.176-1.118-4.877Z" transform="translate(-41.63 -39.504)"/><path class="i" d="M231.432,80.535,213.976,91.185l-1.118.682L154.1,127.713l1.818,7.937-.029.575,65.957-40.239L226.741,93,239.3,85.338Z" transform="translate(21.122 -66.229)"/><path class="i" d="M213.411,77.951l-18.827-1.6-20.6,12.569-55.06,33.591-1.577.962h0L99.889,134.118l25.327,15.451v-21.3h0l62.648-38.221,3.295-2.01L214.169,90l.359-7.172h0Z" transform="translate(-99.889 -76.347)"/></g></g></g></g></g></svg>