<svg xmlns="http://www.w3.org/2000/svg" width="30.429" height="35.879" viewBox="0 0 30.429 35.879"><defs><style>.a{fill:#1e1b52;}</style></defs><path class="a" d="M492.126,366.3a1.516,1.516,0,0,0-2.223-1.342,19.693,19.693,0,0,0-6.506-2.784,1.515,1.515,0,0,0-2.947-.7c-3.631-.855-4.548-1.409-4.677-2.317a1.515,1.515,0,0,0,1.448-1.827,5.245,5.245,0,0,1,1.325-.154,15.151,15.151,0,0,1,7.646,2.344,1.516,1.516,0,1,0,2.673-.511L491.7,355a1.517,1.517,0,1,0-.425-2.678,19.694,19.694,0,0,0-7.846-3.162,1.515,1.515,0,0,0-2.971-.342q-.825-.047-1.683-.048a14.9,14.9,0,0,0-8.894,2.558h0l-.014.012c-.083.061-.165.121-.246.184a1.516,1.516,0,0,0-2.063,2.133,10.127,10.127,0,0,0-1.837,5.986v.093a8.577,8.577,0,0,0,1.98,5.85,1.515,1.515,0,0,0,2.141,1.814,27.689,27.689,0,0,0,8.5,3.009c2.707.627,4.031,1.128,4.645,1.654a1.512,1.512,0,0,0-.227,1.935l-.547.54-.174.172a6.765,6.765,0,0,1-1.826.222A15.836,15.836,0,0,1,471.143,372a1.516,1.516,0,1,0-2.808.36l-3.174,3.791a1.516,1.516,0,1,0,.456,2.716,21.94,21.94,0,0,0,7.99,3.719,1.513,1.513,0,0,0,2.561.49,27.126,27.126,0,0,0,3.725.255c4.022,0,7.419-1,9.824-2.905a10.305,10.305,0,0,0,.805-.708,1.516,1.516,0,0,0,1.778-2.356,10.674,10.674,0,0,0,1.206-5.088v-.093a8.62,8.62,0,0,0-1.542-5.2A1.508,1.508,0,0,0,492.126,366.3Zm-7.476,5.474a1.51,1.51,0,0,0-.617-.132l-.032,0c-.435-1.895-1.181-5.466-1.763-8.318A1.512,1.512,0,0,0,482.9,363a19.69,19.69,0,0,1,6.349,2.635,1.5,1.5,0,0,0-.018,1.3C487.616,368.649,485.766,370.61,484.65,371.775Zm-4.909-9.522-9.409,2.854c-.02-.025-.041-.049-.062-.073,1.249-1.511,3.258-3.964,4.608-5.613C475.138,360.8,476.527,361.469,479.741,362.253Zm-2.5-5.881,4.186-5.71a1.514,1.514,0,0,0,.493.083c.031,0,.062,0,.093,0l4.347,7.8a15.92,15.92,0,0,0-7.812-2.294A6.487,6.487,0,0,0,477.24,356.372Zm13.709-1.911-2.839,4.01a1.515,1.515,0,0,0-.756-.041l-4.473-8.028a1.524,1.524,0,0,0,.309-.347,18.841,18.841,0,0,1,7.536,3.008,1.505,1.505,0,0,0,.224,1.4Zm-10.456-4.717a1.51,1.51,0,0,0,.191.365l-4.467,6.093a1.507,1.507,0,0,0-1.405.238l-4.562-3.148a1.5,1.5,0,0,0-.023-1.042l.016-.014a13.885,13.885,0,0,1,8.535-2.544Q479.654,349.692,480.493,349.744Zm-13.845,9.894a9.191,9.191,0,0,1,1.661-5.408,1.5,1.5,0,0,0,1.389-.2l4.588,3.166a1.512,1.512,0,0,0,.18,1.264c-1.76,2.151-3.82,4.664-5.008,6.1a1.511,1.511,0,0,0-1.195.253,7.7,7.7,0,0,1-1.614-5.088Zm3.859,7.075a1.507,1.507,0,0,0,.154-.663c0-.025,0-.05,0-.075l10.165-3.083a1.516,1.516,0,0,0,.449.323c.21,1.032.568,2.78.934,4.519.264,1.254.49,2.309.676,3.149a18.963,18.963,0,0,0-4.326-1.381A28.142,28.142,0,0,1,470.508,366.713Zm10.405,9.116c-.551.548-1.125,1.12-1.676,1.671-1.613,1.612-2.65,2.66-3.32,3.347a1.506,1.506,0,0,0-1.368-.207c-.563-1.162-1.314-2.8-1.927-4.144-.715-1.563-1.227-2.673-1.6-3.464a16.634,16.634,0,0,0,9.2,2.822C480.464,375.852,480.7,375.844,480.913,375.829Zm-14.971.832L469,373a1.49,1.49,0,0,0,1.03.11c.5,1.029,1.165,2.491,1.748,3.765.641,1.4,1.3,2.85,1.827,3.938.066.136.127.263.186.383a1.51,1.51,0,0,0-.212.428,20.946,20.946,0,0,1-7.4-3.49,1.508,1.508,0,0,0-.244-1.478Zm13.951,5.747a26.276,26.276,0,0,1-3.35-.213c0-.039.006-.079.006-.119a1.514,1.514,0,0,0-.077-.474c1.5-1.532,4.265-4.3,6.056-6.08a2.981,2.981,0,0,0,1.326-.856,1.478,1.478,0,0,0,.737-.1c.442.3,1.039.692,1.782,1.183,1.136.751,2.4,1.586,3.3,2.174a1.5,1.5,0,0,0,.157,1.18C487.637,381.222,484.218,382.408,479.893,382.408Zm12.687-10.132a9.779,9.779,0,0,1-1.066,4.59,1.5,1.5,0,0,0-1.333.286q-3.372-2.218-4.854-3.206a1.506,1.506,0,0,0,.012-1.555c.8-.836,2.172-2.279,4.517-4.776a1.507,1.507,0,0,0,1.435.038,7.749,7.749,0,0,1,1.289,4.529Z" transform="translate(-463.248 -347.713)"/></svg>